<svg xmlns="http://www.w3.org/2000/svg" viewBox="0 0 236.41 284.94"><defs><style>.cls-1{fill:#ffffff;}</style></defs><title>Zasób 2</title><g id="Warstwa_2" data-name="Warstwa 2"><g id="Warstwa_1-2" data-name="Warstwa 1"><path class="cls-1" d="M205.36,222.83a31.06,31.06,0,1,0,31.06,31.06A31.09,31.09,0,0,0,205.36,222.83Z"/><path class="cls-1" d="M205.36,97.16c0-27-9.8-49.76-29.78-68.56C156,9.39,131.69,0,103.09,0S50.17,9.77,30.19,29c-18.66,18-28.8,39-30,63.75H.06c0,1-.06,2.11-.06,3.17C0,124.06,9.52,147,28.95,164.46c19.4,17.06,40,25.78,61.4,25.78,5.19,0,9-.37,11.07-1.39L99,192.54l-.18,0-28.31,41.8a27,27,0,0,0-4.75,15.25,27.38,27.38,0,0,0,50.2,15.2L164.23,192c14.49-21.53,25.08-38.78,31.33-52.51A95.55,95.55,0,0,0,205.36,97.16Zm-64.86,33.21-.11.16c-8.88,9.22-21.49,14.91-36.19,14.91-27.26,0-49.88-22.69-49.88-49.95q0-1.38.09-2.76h-.07A47.15,47.15,0,0,1,68.47,63a48.55,48.55,0,0,1,69.18,0,46.23,46.23,0,0,1,14.81,34.59A49.68,49.68,0,0,1,140.49,130.37Z"/></g></g></svg>